<svg width="20" height="20" viewBox="0 0 20 20" fill="none" xmlns="http://www.w3.org/2000/svg">
<path d="M6.375 11.7917C6.13889 11.7917 5.94097 11.7118 5.78125 11.5521C5.62153 11.3924 5.54167 11.1944 5.54167 10.9583C5.54167 10.7222 5.62153 10.5243 5.78125 10.3646C5.94097 10.2049 6.13889 10.125 6.375 10.125C6.61111 10.125 6.80903 10.2049 6.96875 10.3646C7.12847 10.5243 7.20833 10.7222 7.20833 10.9583C7.20833 11.1944 7.12847 11.3924 6.96875 11.5521C6.80903 11.7118 6.61111 11.7917 6.375 11.7917ZM10.0625 11.7917C9.82639 11.7917 9.62847 11.7118 9.46875 11.5521C9.30903 11.3924 9.22917 11.1944 9.22917 10.9583C9.22917 10.7222 9.30903 10.5243 9.46875 10.3646C9.62847 10.2049 9.82639 10.125 10.0625 10.125C10.2986 10.125 10.4965 10.2049 10.6562 10.3646C10.816 10.5243 10.8958 10.7222 10.8958 10.9583C10.8958 11.1944 10.816 11.3924 10.6562 11.5521C10.4965 11.7118 10.2986 11.7917 10.0625 11.7917ZM13.6042 11.7917C13.3681 11.7917 13.1701 11.7118 13.0104 11.5521C12.8507 11.3924 12.7708 11.1944 12.7708 10.9583C12.7708 10.7222 12.8507 10.5243 13.0104 10.3646C13.1701 10.2049 13.3681 10.125 13.6042 10.125C13.8403 10.125 14.0382 10.2049 14.1979 10.3646C14.3576 10.5243 14.4375 10.7222 14.4375 10.9583C14.4375 11.1944 14.3576 11.3924 14.1979 11.5521C14.0382 11.7118 13.8403 11.7917 13.6042 11.7917ZM3.75 18.3333C3.41667 18.3333 3.125 18.2083 2.875 17.9583C2.625 17.7083 2.5 17.4167 2.5 17.0833V4.16666C2.5 3.83332 2.625 3.54166 2.875 3.29166C3.125 3.04166 3.41667 2.91666 3.75 2.91666H5.10417V1.66666H6.45833V2.91666H13.5417V1.66666H14.8958V2.91666H16.25C16.5833 2.91666 16.875 3.04166 17.125 3.29166C17.375 3.54166 17.5 3.83332 17.5 4.16666V17.0833C17.5 17.4167 17.375 17.7083 17.125 17.9583C16.875 18.2083 16.5833 18.3333 16.25 18.3333H3.75ZM3.75 17.0833H16.25V8.12499H3.75V17.0833ZM3.75 6.87499H16.25V4.16666H3.75V6.87499Z" fill="#929292"/>
</svg>
